Coordinates
version=1
nRows=9
nColumns=36
inDegrees=yes

Units are S.I. units (second, meters, Newtons, ...)
If the header above contains a line with 'inDegrees', this indicates whether rotational values are in degrees (yes) or radians (no).

endheader
time	pelvis_tilt	pelvis_list	pelvis_rotation	pelvis_tx	pelvis_ty	pelvis_tz	hip_flexion_r	hip_adduction_r	hip_rotation_r	knee_angle_r	knee_angle_r_beta	ankle_angle_r	subtalar_angle_r	mtp_angle_r	hip_flexion_l	hip_adduction_l	hip_rotation_l	knee_angle_l	knee_angle_l_beta	ankle_angle_l	subtalar_angle_l	mtp_angle_l	lumbar_extension	lumbar_bending	lumbar_rotation	arm_flex_r	arm_add_r	arm_rot_r	elbow_flex_r	pro_sup_r	arm_flex_l	arm_add_l	arm_rot_l	elbow_flex_l	pro_sup_l
      2.58333330	    -33.45195913	     -1.77670184	      4.27171343	      0.63734008	      0.67458289	      0.40390770	     90.12576627	    -10.19577284	      3.21072274	     81.85096362	      1.42856881	     26.87480493	     -6.79632308	     -7.49999987	     89.72744168	     -9.07794092	      2.74800317	     81.62901610	      1.42469510	     25.76929049	    -12.46796781	     -7.49999987	    -18.48811997	     -2.31179912	      3.90059620	     82.97934544	    -25.07568696	     13.54544762	    131.88891159	     77.29753589	     88.36554549	    -20.18547539	     24.38175754	    117.68804609	     95.04900852
      2.60000000	    -31.95063840	     -1.33618337	      4.23837296	      0.64550915	      0.70076140	      0.40288493	     83.98223473	     -9.79506341	      3.40358835	     77.23491248	      1.34800352	     27.02999565	     -7.24305354	     -7.49999987	     83.32015792	     -8.62783419	      2.24893108	     76.84755443	      1.34124285	     25.28979541	    -12.62775209	     -7.49999987	    -16.64937133	     -2.58176640	      3.44916893	     78.38858136	    -25.89416470	     12.57110936	    132.93392122	     77.22736967	     83.48010072	    -22.51881376	     21.81557941	    119.33251721	     92.93554928
      2.61666670	    -30.35059866	     -0.75265460	      4.11624167	      0.66954777	      0.71702384	      0.38832811	     78.20384167	     -9.75410944	      3.61190852	     73.01482616	      1.27434912	     27.10279809	     -7.39547659	     -7.49999987	     77.00520923	     -8.18575811	      1.45206287	     72.19128269	      1.25997557	     24.57597999	    -12.59309859	     -7.49999987	    -14.32275745	     -2.73633316	      2.78015753	     72.98896182	    -28.25936799	     10.53207252	    136.15427486	     76.65413296	     78.04892839	    -24.51144205	     19.38754010	    122.33011007	     89.37948088
      2.63333330	    -29.16010422	     -0.31719506	      4.08177228	      0.66850216	      0.73834527	      0.39435677	     73.22511310	     -9.81300657	      3.50112057	     69.01601721	      1.20455674	     26.89021534	     -7.43123220	     -7.49999987	     71.88184641	     -7.97182365	      0.52819615	     67.78392514	      1.18305267	     23.47977235	    -12.26611113	     -7.49999987	    -11.52497303	     -3.00805421	      2.45620363	     71.59625049	    -30.50668618	      9.24831572	    136.75818132	     76.69458452	     75.12932024	    -27.67246056	     18.42707379	    123.02973318	     88.66414764
      2.65000000	    -27.93706773	      0.02716538	      3.99246320	      0.67363986	      0.75555209	      0.39235447	     68.66720944	    -10.01650179	      3.02492594	     65.26110805	      1.13902121	     26.15932839	     -7.28322711	     -7.49999987	     67.28420917	     -7.85218351	     -0.35883265	     63.66822008	      1.11122007	     21.84994792	    -12.47236168	     -7.49999987	     -9.13064111	     -2.78006082	      0.84272114	     73.79180519	    -30.68440950	      9.72538425	    134.31664287	     80.81924059	     73.07103655	    -33.23945248	     16.08229795	    125.17412294	     88.41572544
      2.66666670	    -26.83626052	      0.23828589	      3.79786054	      0.68937258	      0.77338367	      0.39329961	     64.21453502	    -10.15875806	      2.23783496	     61.23290449	      1.06871579	     25.16480489	     -6.97845564	     -7.49999987	     62.62639679	     -7.91353315	     -1.19777666	     59.21686453	      1.03352926	     20.18587844	    -12.31333215	     -7.49999987	     -6.22841463	     -2.99977696	      0.80590535	     72.71441408	    -34.06240379	      8.85361754	    134.41747166	     80.12477332	     71.40172465	    -36.47873217	     14.79830553	    126.62634633	     86.66262173
      2.68333330	    -25.55495412	      0.33037746	      3.59755503	      0.69665738	      0.80363726	      0.39617586	     59.57387077	    -10.19048721	      1.28616539	     56.79476449	      0.99125564	     23.64504212	     -7.05052795	     -7.49999987	     57.83630701	     -8.21029330	     -2.28616867	     54.50846576	      0.95135220	     18.11509393	    -12.04605056	     -7.49999987	     -4.03483120	     -3.06797514	      1.19378738	     72.35626761	    -37.36467802	      9.19783336	    133.24666160	     79.45172003	     69.80912301	    -39.78448568	     13.98343455	    127.13786232	     84.96007447
      2.70000000	    -23.79320013	      0.24345454	      3.30275390	      0.71845267	      0.83686566	      0.39938477	     52.95850280	     -9.91589591	     -0.26606580	     50.06017377	      0.87371486	     21.19827511	     -7.41726865	     -7.49999987	     51.23447164	     -8.57426461	     -3.42098552	     47.76265566	      0.83361560	     14.69762703	    -11.69392901	     -7.49999987	     -1.79332024	     -2.99846732	      1.27040038	     71.27020544	    -39.60415033	      9.01260354	    133.10007804	     78.82607954	     67.73485069	    -42.97697756	     13.23745676	    127.32118412	     83.77254654
      2.71666670	    -21.74616638	     -0.04619903	      3.05435233	      0.72626301	      0.86570994	      0.40221947	     45.82564055	     -9.38555804	     -2.15885583	     42.63984819	      0.74420574	     17.90713701	     -7.63727187	     -7.49999987	     44.18218827	     -9.24273248	     -5.16055627	     40.43593301	      0.70574017	     11.04353649	    -10.23519876	     -7.49999987	      0.05701935	     -2.78050139	      1.14155852	     70.44786005	    -41.57979298	      9.26425430	    131.44989626	     78.04056639	     67.55652780	    -45.24054615	     13.10276857	    126.83758477	     82.45653763
